# xmcd
#
# Track frame offsets:
#	150
#	17963
#	39638
#	56251
#
# Disc length: 1074 seconds
#
# Revision: 1
# Processed by: cddbd v1.5.2PL0 Copyright (c) Steve Scherf et al.
# Submitted via: audiograbber 1.83.01
#
DISCID=2b043004
DTITLE=Vend - Desire
DYEAR=2009
DGENRE=Rock
TTITLE0=Desire
TTITLE1=One Life to Waste
TTITLE2=A Different Story
TTITLE3=Few Words
EXTD=VENDF-1
EXTT0=ISRC FI-VEN-09-00001
EXTT1=ISRC FI-VEN-09-00002
EXTT2=ISRC FI-VEN-09-00003
EXTT3=ISRC FI-VEN-09-00004
PLAYORDER=
